Coordinates
version=1
nRows=24
nColumns=24
inDegrees=yes

Units are S.I. units (second, meters, Newtons, ...)
Angles are in degrees.

endheader
time	pelvis_tilt	pelvis_list	pelvis_rotation	pelvis_tx	pelvis_ty	pelvis_tz	hip_flexion_r	hip_adduction_r	hip_rotation_r	knee_angle_r	ankle_angle_r	subtalar_angle_r	mtp_angle_r	hip_flexion_l	hip_adduction_l	hip_rotation_l	knee_angle_l	ankle_angle_l	subtalar_angle_l	mtp_angle_l	lumbar_extension	lumbar_bending	lumbar_rotation
      1.02916667	     -3.60892238	     -1.90292436	     -0.03567804	     -0.12108059	      1.01727784	      0.32191117	     -9.09595286	      8.13866585	      0.25075889	     -7.33659080	     12.40959609	     -3.52465087	     -0.89383263	     21.41057574	     -1.44322856	     -2.43884798	      6.80178595	      3.93857426	     -2.48729457	     -2.14263929	     -2.20539134	      0.05043909	      5.93381090
      1.03333333	     -3.61850261	     -1.81516260	     -0.05786248	     -0.11570260	      1.01651316	      0.32148671	     -9.19550349	      8.00278660	      0.12925044	     -7.79270317	     12.73955015	     -3.18544804	     -0.85380641	     21.53575725	     -1.22333870	     -2.36585999	      6.31441315	      4.12398975	     -2.20175753	     -2.00194106	     -2.19213162	     -0.04915222	      5.97996709
      1.03750000	     -3.59060363	     -1.72518756	     -0.07579575	     -0.11029382	      1.01582615	      0.32110286	     -9.34366615	      7.88210021	      0.12022575	     -8.22166006	     12.87380911	     -3.26076465	     -0.84223216	     21.59496052	     -1.00453083	     -2.20247542	      5.82735530	      4.14921837	     -2.17018906	     -1.95933777	     -2.22722569	     -0.13618348	      5.99735167
      1.04166667	     -3.60243554	     -1.62780836	     -0.08862268	     -0.10487885	      1.01509576	      0.32067980	     -9.39678655	      7.74029620	     -0.02020864	     -8.76734532	     13.17633930	     -2.95346354	     -0.78068852	     21.74530108	     -0.77750445	     -2.18610075	      5.18544476	      4.27687765	     -1.84207068	     -1.71001892	     -2.20590114	     -0.24265076	      6.03751395
      1.04583333	     -3.54992800	     -1.51927852	     -0.08872228	     -0.09941240	      1.01447439	      0.32030793	     -9.54788847	      7.60981166	     -0.00761772	     -9.24689830	     13.28639623	     -3.06239590	     -0.76637838	     21.78449848	     -0.54197133	     -2.01282372	      4.58809346	      4.24510768	     -1.82951940	     -1.65444622	     -2.26318420	     -0.36887504	      6.05338069
      1.05000000	     -3.50562289	     -1.39818332	     -0.09632480	     -0.09392340	      1.01387772	      0.31990633	     -9.63465122	      7.44879786	     -0.12675533	     -9.84969104	     13.53819172	     -2.82151020	     -0.66969863	     21.86379779	     -0.29858736	     -2.00270459	      3.88156013	      4.27055058	     -1.55034683	     -1.26705439	     -2.29909166	     -0.51198513	      6.09042997
      1.05416667	     -3.44396575	     -1.28260050	     -0.08813604	     -0.08839835	      1.01330962	      0.31954759	     -9.75642199	      7.31731173	     -0.11438168	    -10.40936074	     13.60154889	     -2.96891048	     -0.65083122	     21.89211921	     -0.06198136	     -1.83309665	      3.21573760	      4.15538953	     -1.56597823	     -1.19664780	     -2.35750181	     -0.65256927	      6.10386752
      1.05833333	     -3.35170130	     -1.15082249	     -0.09255840	     -0.08284046	      1.01282030	      0.31918787	     -9.87111054	      7.15602255	     -0.17994668	    -11.05456423	     13.68487679	     -2.91133580	      0.30379223	     21.89593288	      0.18142341	     -1.78326811	      2.50819829	      3.98511434	     -1.44094817	      2.31072067	     -2.45396515	     -0.83958529	      6.08941591
      1.06250000	     -3.29731367	     -1.03401742	     -0.07753453	     -0.07726916	      1.01229810	      0.31881408	     -9.94056387	      7.02681541	     -0.17083581	    -11.70303975	     13.72200227	     -3.06164689	      0.31279765	     21.93358875	      0.41477747	     -1.62077912	      1.79480296	      3.75716160	     -1.48879870	      2.32149044	     -2.49968514	     -0.95724564	      6.11777183
      1.06666667	     -3.25890002	     -0.90318321	     -0.07683137	     -0.07165580	      1.01178515	      0.31847729	     -9.95189867	      6.87565833	     -0.20299897	    -12.44371945	     13.79415158	     -3.07015401	      0.36203659	     21.96456710	      0.65347458	     -1.41345293	      1.11110454	      3.43347403	     -1.66781631	      2.39420627	     -2.49179017	     -1.16174682	      6.16319234
      1.07083333	     -3.19155335	     -0.78558285	     -0.07205023	     -0.06604976	      1.01133994	      0.31810926	     -9.95807925	      6.73288875	     -0.28923022	    -13.24841835	     13.81913930	     -3.04570766	      0.47944099	     21.95472906	      0.87987175	     -1.15128924	      0.44047495	      3.05204600	     -1.98763487	      2.56610233	     -2.54849247	     -1.28643133	      6.19155987
      1.07500000	     -3.09637326	     -0.65510436	     -0.06930387	     -0.06040573	      1.01098456	      0.31775627	     -9.98144850	      6.58007936	     -0.34111137	    -14.07471286	     13.77601129	     -3.10034544	      0.65470216	     21.89782116	      1.11444240	     -0.88347666	     -0.20626773	      2.60265674	     -2.34431299	      2.80091018	     -2.62576182	     -1.45544538	      6.20669874
      1.07916667	     -3.03223624	     -0.52857566	     -0.06524164	     -0.05475322	      1.01061484	      0.31739372	     -9.93603757	      6.42875626	     -0.40773374	    -14.96846275	     13.69315381	     -3.15308941	      0.86548309	     21.87388759	      1.34164656	     -0.60643134	     -0.85707017	      2.12386975	     -2.72454529	      3.04730638	     -2.66554379	     -1.61835742	      6.22472517
      1.08333333	     -2.95242241	     -0.39630034	     -0.05821707	     -0.04906854	      1.01030736	      0.31703737	     -9.89179925	      6.27472737	     -0.45647455	    -15.87869716	     13.45674753	     -3.32784115	      2.90216281	     21.82234550	      1.57059441	     -0.32872692	     -1.48978420	      1.58933211	     -3.13641788	      5.12601739	     -2.72206639	     -1.79897621	      6.20641888
      1.08750000	     -2.87420139	     -0.25761146	     -0.05805514	     -0.04338406	      1.01004630	      0.31663573	     -9.78618825	      6.09080819	     -0.61213688	    -16.91434049	     13.34329971	     -3.23407899	      2.97951551	     21.76523366	      1.80365992	     -0.06332399	     -2.11417395	      1.04558019	     -3.55656695	      5.14400274	     -2.77519379	     -1.96855914	      6.24450840
      1.09166667	     -2.83426140	     -0.12884617	     -0.05663602	     -0.03769633	      1.00976507	      0.31623475	     -9.60970372	      5.91797696	     -0.74959087	    -17.99638057	     13.12416287	     -3.23011709	      3.12078122	     21.73914962	      2.02512214	      0.26617699	     -2.72244613	      0.48211144	     -4.08861815	      5.18445811	     -2.78156069	     -2.12619115	      6.24416969
      1.09583333	     -2.75199546	      0.02088676	     -0.06339282	     -0.03198292	      1.00961299	      0.31582500	     -9.44515740	      5.70775564	     -0.92939154	    -19.13620167	     12.86262156	     -3.16156142	      3.32926894	     21.64893149	      2.26230714	      0.57373556	     -3.30045819	     -0.09858065	     -4.63651935	      5.23707782	     -2.83838229	     -2.31615673	      6.24892578
      1.10000000	     -2.70754270	      0.16106697	     -0.06948400	     -0.02627739	      1.00944165	      0.31539631	     -9.19840817	      5.49783088	     -1.13338050	    -20.34489716	     12.53820864	     -3.07552124	      3.59679493	     21.60301600	      2.48679631	      0.87481123	     -3.89214253	     -0.64527657	     -5.17137888	      5.29370801	     -2.84715500	     -2.48654175	      6.24515645
      1.10416667	     -2.62122148	      0.32650816	     -0.08533158	     -0.02055408	      1.00939862	      0.31495956	     -8.96070693	      5.24192808	     -1.37859470	    -21.61321156	     12.16383916	     -2.92167167	      3.94791372	     21.48927747	      2.73133084	      1.16343629	     -4.44513739	     -1.18989677	     -5.72530044	      5.35104694	     -2.91300742	     -2.68870983	      6.24412157
      1.10833333	     -2.55933987	      0.48625318	     -0.10925209	     -0.01482149	      1.00936064	      0.31449760	     -8.65524519	      4.97335263	     -1.65996495	    -22.94521478	     11.69276579	     -2.76538940	      4.43185777	     21.39710516	      2.96631346	      1.43070631	     -5.00049513	     -1.64930157	     -6.26911922	      5.41083856	     -2.92544485	     -2.85461778	      6.22985969
      1.11250000	     -2.48151486	      0.64962280	     -0.12577737	     -0.00909104	      1.00940952	      0.31404566	     -8.35205690	      4.69894901	     -1.92004971	    -24.26718280	     10.95448307	     -2.75898272	      9.11763975	     21.28767851	      3.19865216	      1.66516069	     -5.56369842	     -2.06842901	     -6.70650252	      5.80315923	     -2.98148827	     -3.06901828	      6.20061931
      1.11666667	     -2.39744201	      0.83604561	     -0.16102659	     -0.00336687	      1.00951990	      0.31356593	     -7.99372331	      4.36025856	     -2.26913036	    -25.71967675	     10.41266137	     -2.42383628	      9.20593554	     21.16742793	      3.44447749	      1.79225149	     -6.12597306	     -2.41439826	     -7.03203078	      5.78682367	     -3.04522445	     -3.28546292	      6.20638093
      1.12083333	     -2.32173107	      1.02099214	     -0.19767553	      0.00235948	      1.00966686	      0.31307182	     -7.59857494	      4.01027168	     -2.61489815	    -27.20097622	      9.73096691	     -2.15419550	      9.38947648	     21.03456198	      3.68978087	      1.97043568	     -6.65578199	     -2.72184110	     -7.44437555	      5.75717912	     -3.08849321	     -3.49287469	      6.18698051
      1.12500000	     -2.18076412	      1.21495885	     -0.22747575	      0.00809366	      1.00998334	      0.31255741	     -7.25965836	      3.63630261	     -2.97752929	    -28.67546716	      8.86887799	     -1.95567687	     10.47642136	     20.78528782	      3.95336532	      2.25040271	     -7.09953513	     -3.05517802	     -8.02659435	      5.58527971	     -3.22492059	     -3.70982998	      6.15918700
